<?xml version="1.0" encoding="UTF-8"?>
<svg version="1.1" xmlns="http://www.w3.org/2000/svg" width="1024" height="1024">
<path d="M0 0 C337.92 0 675.84 0 1024 0 C1024 337.92 1024 675.84 1024 1024 C686.08 1024 348.16 1024 0 1024 C0 686.08 0 348.16 0 0 Z " fill="#F5F4F5" transform="translate(0,0)"/>
<path d="M0 0 C0.7699379 0.30583008 1.53987579 0.61166016 2.33314514 0.92675781 C4.00322839 1.59184301 5.67086024 2.2631103 7.33624268 2.93988037 C10.96530531 4.41427396 14.60636502 5.85795267 18.2467041 7.30422974 C20.17791082 8.07192855 22.1084835 8.84122405 24.03845215 9.61203003 C33.69276005 13.46490244 43.3946146 17.18927247 53.10668945 20.89364624 C56.04118008 22.01309076 58.97481058 23.13476156 61.90820312 24.25708008 C71.06361826 27.75935583 80.22153558 31.2550456 89.38098145 34.74676514 C93.57034641 36.34434423 97.75894707 37.94392129 101.94744873 39.54376221 C104.84653007 40.65015959 107.74671939 41.75361278 110.64697266 42.85693359 C120.18365316 46.49341745 129.6868466 50.20719395 139.1484375 54.03515625 C140.09638687 54.41507217 141.04433624 54.7949881 142.02101135 55.18641663 C142.8937822 55.54247482 143.76655304 55.89853302 144.66577148 56.26538086 C145.43735092 56.57825546 146.20893036 56.89113007 147.00389099 57.21348572 C148.90234375 58.1328125 148.90234375 58.1328125 150.90234375 60.1328125 C151.02734375 62.7578125 151.02734375 62.7578125 150.90234375 65.1328125 C137.96666996 72.02399872 124.42690242 77.51766469 110.90234375 83.1328125 C110.77811746 88.68286099 110.68771058 94.23208832 110.62768555 99.78320312 C110.60264598 101.66876333 110.56860376 103.55422748 110.52514648 105.43945312 C110.46402589 108.16039814 110.43602882 110.88005277 110.4140625 113.6015625 C110.38825607 114.43522339 110.36244965 115.26888428 110.33586121 116.12780762 C110.33325205 121.65643366 111.48120668 124.88758198 114.81965637 129.31506348 C116.44699517 132.04724044 116.16053141 134.23588806 115.578125 137.27734375 C114.90234375 139.1328125 114.90234375 139.1328125 112.65234375 141.9453125 C110.61309205 144.87632406 110.61309205 144.87632406 111.29541016 147.43286133 C111.57046387 148.30966553 111.84551758 149.18646973 112.12890625 150.08984375 C113.88744213 156.01366724 115.2428033 161.96571484 116.52734375 168.0078125 C116.74390625 169.01328125 116.96046875 170.01875 117.18359375 171.0546875 C120.68880127 187.36904845 120.68880127 187.36904845 119.90234375 193.1328125 C117.59643869 196.42696258 115.75965477 197.43266193 111.90234375 198.1328125 C109.42595314 198.27669218 106.94523517 198.3533133 104.46484375 198.3828125 C102.51771484 198.42148437 102.51771484 198.42148437 100.53125 198.4609375 C96.70838189 198.11527451 94.90414829 197.46452274 91.90234375 195.1328125 C86.92706671 187.66989694 89.9491649 176.02233432 91.59741211 167.74487305 C94.40923483 154.35817379 94.40923483 154.35817379 95.99072266 150.42822266 C97.08676944 147.66843909 97.05219954 146.84318686 95.90234375 144.1328125 C95.22171875 143.2459375 94.54109375 142.3590625 93.83984375 141.4453125 C91.43696715 137.33716864 90.79823232 133.80093067 91.90234375 129.1328125 C92.56073242 128.44300293 93.21912109 127.75319336 93.89746094 127.04248047 C96.62453955 123.08469639 96.50454929 120.03176067 96.51171875 115.33203125 C96.528255 114.49565628 96.54479126 113.65928131 96.56182861 112.79756165 C96.61023315 110.13840334 96.63166219 107.47981658 96.65234375 104.8203125 C96.68050984 103.01234115 96.71043816 101.20439635 96.7421875 99.39648438 C96.8159898 94.97530749 96.86561027 90.55444647 96.90234375 86.1328125 C96.19103806 85.96165924 95.47973236 85.79050598 94.74687195 85.61416626 C86.94160504 83.70363654 79.24378973 81.52388164 71.546875 79.21875 C69.63414348 78.64995423 67.7214099 78.08116532 65.8085804 77.51269913 C63.80723364 76.91763632 61.80619783 76.32153687 59.8052063 75.72528076 C32.95685613 67.71096571 32.95685613 67.71096571 6.00131226 60.06866455 C4.65848681 59.69884474 3.31636334 59.32646514 1.9750061 58.95135498 C0.17313075 58.44885602 -1.63209698 57.95842328 -3.4375 57.46875 C-4.40034912 57.20626465 -5.36319824 56.9437793 -6.35522461 56.67333984 C-9.32980189 56.0870571 -12.07336232 56.03738778 -15.09765625 56.1328125 C-15.42765625 57.7828125 -15.75765625 59.4328125 -16.09765625 61.1328125 C-12.03606825 63.85090658 -7.88442617 65.28852904 -3.23046875 66.62890625 C-2.45502213 66.85856583 -1.6795755 67.0882254 -0.88063049 67.32484436 C0.79514312 67.82045076 2.47183058 68.31297554 4.14932251 68.80273438 C7.72108097 69.84595412 11.28809044 70.90496655 14.85536194 71.96340942 C16.71431411 72.51495732 18.57347855 73.06579024 20.43284607 73.61593628 C29.53460633 76.31123583 38.6164884 79.06970092 47.69024658 81.85769653 C49.35500968 82.36882143 51.02016301 82.87867727 52.68572998 83.38717651 C61.51230916 86.08196957 70.27617112 88.8376594 78.90234375 92.1328125 C78.90234375 92.7928125 78.90234375 93.4528125 78.90234375 94.1328125 C40.22302478 112.00393595 40.22302478 112.00393595 22.65625 119.6171875 C18.61832756 121.36817562 14.61283121 123.17806235 10.6171875 125.0234375 C9.5844873 125.49273682 8.55178711 125.96203613 7.48779297 126.44555664 C5.5464462 127.32842885 3.6112139 128.22494354 1.68408203 129.13842773 C-5.29347793 132.27788022 -11.28742547 133.68577772 -18.73608398 131.28100586 C-21.74611101 130.04083331 -24.66565077 128.67262293 -27.59765625 127.2578125 C-29.36796794 126.43862018 -31.13836881 125.6196097 -32.91088867 124.8052063 C-34.20099228 124.21244873 -35.49019374 123.6177244 -36.77856445 123.02120972 C-45.47431838 119.00654798 -54.28995063 115.26854003 -63.09765625 111.5078125 C-63.98166107 111.12955322 -64.86566589 110.75129395 -65.77645874 110.36157227 C-93.01303393 98.70733805 -120.34944859 87.28467169 -147.74536133 76.01025391 C-153.45212923 73.65861482 -159.14753833 71.28133164 -164.828125 68.8671875 C-166.00141357 68.36928711 -167.17470215 67.87138672 -168.38354492 67.35839844 C-171.09765625 66.1328125 -171.09765625 66.1328125 -172.09765625 65.1328125 C-172.41015625 62.7578125 -172.41015625 62.7578125 -172.09765625 60.1328125 C-168.5433306 56.62142501 -163.64898372 55.2350069 -159.06640625 53.5078125 C-157.70956726 52.98731323 -157.70956726 52.98731323 -156.32531738 52.45629883 C-153.41834849 51.34247284 -150.5081768 50.23732022 -147.59765625 49.1328125 C-143.83640448 47.69749476 -140.07637939 46.25897598 -136.31640625 44.8203125 C-135.34067154 44.44730011 -134.36493683 44.07428772 -133.3596344 43.68997192 C-109.34606486 34.49671813 -85.49829139 24.89387622 -61.66015625 15.2578125 C-56.48622962 13.16664746 -51.31193144 11.0764076 -46.13697624 8.98778915 C-44.11345885 8.17066719 -42.09046944 7.35224907 -40.06752014 6.53372192 C-37.59329494 5.53302254 -35.11623571 4.5406474 -32.63699341 3.55230713 C-30.27065165 2.60325671 -27.91188304 1.63510883 -25.56100464 0.64837646 C-15.86576882 -3.32154995 -9.72447589 -4.03177335 0 0 Z " fill="#002848" transform="translate(505.09765625,279.8671875)"/>
<path d="M0 0 C6.97893173 0.63444834 13.11266417 1.20899629 19.75 3 C20.54583496 3.21366211 21.34166992 3.42732422 22.16162109 3.64746094 C49.25509992 11.26015936 77.03443882 24.77869994 98.22499084 43.56324768 C99.77116134 44.92094934 101.33344784 46.26259702 102.9500103 47.53567314 C117.71607447 59.25859873 117.71607447 59.25859873 119.50100708 68.57913208 C120.16682407 74.93592307 119.91853687 81.25493955 119.66015625 87.62890625 C119.62837445 89.95864507 119.60421088 92.28849898 119.58726501 94.61839294 C119.52292572 100.69599548 119.35649649 106.76648269 119.16729736 112.84130859 C118.99211262 119.0618464 118.91548235 125.28355603 118.83007812 131.50585938 C118.64877678 143.67366785 118.35938616 155.8362382 118 168 C117.23300781 167.22011719 116.46601563 166.44023438 115.67578125 165.63671875 C113.07122886 162.96757844 113.07122886 162.96757844 110.1875 160.8125 C109.465625 160.214375 108.74375 159.61625 108 159 C108 158.34 108 157.68 108 157 C107.42636719 156.74992188 106.85273438 156.49984375 106.26171875 156.2421875 C103.68416526 154.82653636 101.92739766 153.16877721 99.8125 151.125 C71.57558526 125.40628964 37.24580895 114.65572612 0 110 C0 73.7 0 37.4 0 0 Z " fill="#008248" transform="translate(372,440)"/>
<path d="M0 0 C-0.02094727 0.65484375 -0.04189453 1.3096875 -0.06347656 1.984375 C-0.14730383 4.98942328 -0.19886895 7.99422464 -0.25 11 C-0.28351563 12.02996094 -0.31703125 13.05992187 -0.3515625 14.12109375 C-0.42663039 20.01392318 -0.01019863 24.2696398 3.03613281 29.37890625 C4 31 4 31 5 34 C7.29534258 35.13545562 7.29534258 35.13545562 10 36 C11.65 36.66 13.3 37.32 15 38 C19.95 38.33 24.9 38.66 30 39 C30 59.46 30 79.92 30 101 C23.4 101.99 16.8 102.98 10 104 C-2.66601626 106.94178442 -14.218008 110.61418708 -26 116 C-26.6712793 116.30276855 -27.34255859 116.60553711 -28.03417969 116.91748047 C-48.51815396 126.26842957 -69.46207714 140.81613625 -83.7890625 158.33203125 C-84.88347656 159.65267578 -84.88347656 159.65267578 -86 161 C-86.33 161 -86.66 161 -87 161 C-87.41921602 147.49140021 -87.73794681 133.98437494 -87.93261909 120.4705677 C-88.02611487 114.19335486 -88.15263257 107.92062715 -88.35791016 101.64599609 C-88.55520438 95.57658634 -88.6614513 89.51145438 -88.70779037 83.4390831 C-88.74075517 81.13667341 -88.80513537 78.83446789 -88.90314102 76.53390884 C-89.67356823 57.67886654 -89.67356823 57.67886654 -83.13226318 49.66278076 C-78.77010164 45.00272062 -74.00731593 40.94423809 -69 37 C-67.64466245 35.88250468 -66.29130749 34.76259803 -64.94046021 33.63967896 C-62.22024401 31.39593903 -59.43181961 29.26858653 -56.59082031 27.18066406 C-55.02697909 26.02002316 -53.49350802 24.81881734 -51.9609375 23.6171875 C-38.43689372 13.09055712 -17.91952407 0 0 0 Z " fill="#008147" transform="translate(585,449)"/>
<path d="M0 0 C6.06640364 2.02213455 11.78666012 4.10002627 17.58203125 6.703125 C19.23663707 7.43688635 20.8912602 8.17060865 22.54589844 8.90429688 C23.83457825 9.47845337 23.83457825 9.47845337 25.14929199 10.06420898 C40.10795734 16.72454153 55.12463862 23.22732735 70.25 29.5 C71.01784821 29.81859985 71.78569641 30.13719971 72.57681274 30.4654541 C77.04769316 32.31891752 81.52068868 34.16699901 86 36 C86.89557617 36.37962891 87.79115234 36.75925781 88.71386719 37.15039062 C101.04235108 41.73209972 117.33020227 30.71041975 128.42425537 25.67010498 C131.04575596 24.47921406 133.66931845 23.29297588 136.29345703 22.10791016 C141.53055665 19.74210226 146.76541542 17.37136621 152 15 C156.99535019 12.73742592 161.99176684 10.4772858 166.99169922 8.22485352 C168.84349114 7.38921861 170.69325013 6.54919639 172.54296875 5.70898438 C174.18845703 4.96745117 174.18845703 4.96745117 175.8671875 4.2109375 C176.81706543 3.78087402 177.76694336 3.35081055 178.74560547 2.90771484 C181 2 181 2 183 2 C183 18.17 183 34.34 183 51 C173.595 54.465 173.595 54.465 164 58 C160.02805795 59.84534947 156.21089549 61.67584333 152.375 63.75 C151.41263428 64.26312744 150.45026855 64.77625488 149.45874023 65.30493164 C128.86670919 76.44163022 111.16673907 90.08582608 95 107 C92.0922091 104.13679193 89.30464416 101.25518234 86.6875 98.125 C65.06121552 73.35643487 30.91107831 57.83173666 0 49 C0 32.83 0 16.66 0 0 Z " fill="#002847" transform="translate(399,384)"/>
<path d="M0 0 C4.95 0 9.9 0 15 0 C15 26.4 15 52.8 15 80 C10.71 80 6.42 80 2 80 C1.34 78.35 0.68 76.7 0 75 C-0.54269531 75.34933594 -1.08539062 75.69867187 -1.64453125 76.05859375 C-2.35996094 76.51363281 -3.07539062 76.96867188 -3.8125 77.4375 C-4.52019531 77.88996094 -5.22789062 78.34242188 -5.95703125 78.80859375 C-11.08247779 81.79762089 -16.64707595 81.83964934 -22.30859375 80.421875 C-29.50138423 77.67938989 -34.63490544 72.56352137 -38.1640625 65.75390625 C-41.58240582 56.28158108 -41.47522511 44.76223099 -37.9375 35.375 C-34.9634863 29.19173988 -31.35561404 25.71682579 -25.3125 22.625 C-15.62086158 20.79638898 -10.27306657 21.87863708 -1 26 C-0.67 17.42 -0.34 8.84 0 0 Z " fill="#012543" transform="translate(826,629)"/>
<path d="M0 0 C6.79124005 4.08755769 10.21383529 9.41151031 12.74609375 16.828125 C15.30132112 27.66490978 14.00800585 38.55823468 8.7578125 48.30859375 C5.32265817 52.50711571 1.72147248 56.32070709 -3.4921875 58.05859375 C-5.55016341 58.23032635 -7.61507082 58.32510581 -9.6796875 58.37109375 C-11.30970703 58.42716797 -11.30970703 58.42716797 -12.97265625 58.484375 C-16.4921875 58.05859375 -16.4921875 58.05859375 -24.4921875 54.05859375 C-24.8221875 62.63859375 -25.1521875 71.21859375 -25.4921875 80.05859375 C-30.4421875 80.05859375 -35.3921875 80.05859375 -40.4921875 80.05859375 C-40.4921875 53.65859375 -40.4921875 27.25859375 -40.4921875 0.05859375 C-36.2021875 0.05859375 -31.9121875 0.05859375 -27.4921875 0.05859375 C-27.4921875 1.70859375 -27.4921875 3.35859375 -27.4921875 5.05859375 C-26.87730469 4.70925781 -26.26242187 4.35992188 -25.62890625 4 C-24.82066406 3.54496094 -24.01242187 3.08992187 -23.1796875 2.62109375 C-22.37917969 2.16863281 -21.57867188 1.71617187 -20.75390625 1.25 C-14.6455831 -1.96768318 -6.47886755 -2.44734652 0 0 Z " fill="#022746" transform="translate(626.4921875,651.94140625)"/>
<path d="M0 0 C8.0028187 4.25428652 12.88495509 9.52084856 15.64453125 18.20703125 C17.61898083 28.44833512 16.31897139 38.62509271 10.7421875 47.46875 C6.59866691 52.81230661 1.36144338 55.27535221 -4.9375 57.375 C-14.92068029 58.09401021 -23.24000067 57.59615756 -31.25 51.25 C-36.88220214 45.96560317 -39.59057843 38.89066769 -40.17578125 31.2734375 C-40.3948629 20.87282449 -38.88461747 12.64650842 -31.65234375 4.84375 C-23.22955108 -2.37030477 -10.21026062 -4.24986668 0 0 Z " fill="#022645" transform="translate(299.9375,652.625)"/>
<path d="M0 0 C1.23907104 0.00483398 1.23907104 0.00483398 2.50317383 0.00976562 C8.94241819 0.15676008 13.81119674 1.42042288 19.5625 4.4375 C19.5625 9.0575 19.5625 13.6775 19.5625 18.4375 C9.9375 15.5625 9.9375 15.5625 6.5625 14.4375 C4.46086585 14.31684544 2.35505967 14.26213991 0.25 14.25 C-1.41482422 14.22873047 -1.41482422 14.22873047 -3.11328125 14.20703125 C-6.5336836 14.44416843 -9.24723443 15.21641499 -12.4375 16.4375 C-12.72975704 20.16377727 -12.89549027 22.64563607 -10.99609375 25.9296875 C-7.50061604 29.35578932 -3.77681046 30.66278897 0.75 32.375 C18.0557864 39.33584079 18.0557864 39.33584079 22.125 46.0625 C24.57989793 51.9678305 24.63104149 58.65650705 22.90234375 64.7734375 C20.035922 71.25080614 15.03471211 75.65110876 8.5 78.25 C-4.66220215 82.52834487 -17.21093594 80.55078203 -29.4375 74.4375 C-29.4375 69.8175 -29.4375 65.1975 -29.4375 60.4375 C-28.096875 60.89125 -26.75625 61.345 -25.375 61.8125 C-24.54226562 62.08449219 -23.70953125 62.35648438 -22.8515625 62.63671875 C-20.97100364 63.26052873 -19.10666228 63.93330229 -17.25 64.625 C-10.60315308 66.04154115 -1.76876292 67.32621542 4.4375 63.875 C6.85714931 61.52140643 6.85714931 61.52140643 7.1875 57.9375 C6.45457029 53.8330936 5.71389689 53.04465894 2.5625 50.4375 C-0.571562 48.8448179 -0.571562 48.8448179 -4.0625 47.5 C-5.31585696 46.98098083 -6.56845814 46.46013298 -7.8203125 45.9375 C-9.01398438 45.4425 -10.20765625 44.9475 -11.4375 44.4375 C-19.10484068 41.16610131 -24.87656157 37.7969897 -28.57421875 30.05859375 C-30.38506824 24.56049418 -30.12783362 18.68108427 -28.4375 13.1875 C-21.15008582 3.1673055 -12.11868156 -0.14819543 0 0 Z " fill="#012646" transform="translate(118.4375,630.5625)"/>
<path d="M0 0 C5.28 0 10.56 0 16 0 C16 9.24 16 18.48 16 28 C19.96 26.02 23.92 24.04 28 22 C34.19020853 21.26694899 39.5372638 21.81539178 45 25 C49.36583707 28.75639281 51.72347838 33.4426429 52.17047119 39.1930542 C52.23092711 41.79526737 52.22484951 44.38944411 52.1953125 46.9921875 C52.1924826 47.93812775 52.18965271 48.88406799 52.18673706 49.8586731 C52.17558932 52.86424694 52.15049465 55.86951702 52.125 58.875 C52.11496321 60.91926651 52.10583859 62.96353772 52.09765625 65.0078125 C52.07566767 70.00532444 52.04117509 75.0026108 52 80 C47.05 80 42.1 80 37 80 C36.970271 78.25928223 36.970271 78.25928223 36.93994141 76.48339844 C36.86382088 72.17442266 36.77511334 67.86578172 36.68261719 63.55712891 C36.6443541 61.69293838 36.60949654 59.8286747 36.578125 57.96435547 C36.53241644 55.28326284 36.47443178 52.60267267 36.4140625 49.921875 C36.40251129 49.08944275 36.39096008 48.2570105 36.37905884 47.39935303 C36.31583622 41.89252463 36.31583622 41.89252463 34 37 C29.52184863 34.15026731 24.97347624 35.11918757 20 36 C18.02 36.495 18.02 36.495 16 37 C16 51.19 16 65.38 16 80 C10.72 80 5.44 80 0 80 C0 53.6 0 27.2 0 0 Z " fill="#032847" transform="translate(201,629)"/>
<path d="M0 0 C4.95 0 9.9 0 15 0 C15.33 9.24 15.66 18.48 16 28 C17.65 26.68 19.3 25.36 21 24 C26.93604527 21.17331178 34.03343974 20.89781104 40.34765625 22.65234375 C45.62634656 24.95128738 47.64621294 27.82166847 50 33 C50.93512434 35.80537303 51.12182907 37.48165364 51.11352539 40.37963867 C51.11344986 41.26032516 51.11337433 42.14101166 51.11329651 43.04838562 C51.10813522 43.99534805 51.10297394 44.94231049 51.09765625 45.91796875 C51.0962413 46.89034988 51.09482635 47.86273102 51.09336853 48.86457825 C51.08776817 51.97225004 51.07521562 55.07984996 51.0625 58.1875 C51.05748505 60.29361875 51.05292213 62.39973863 51.04882812 64.50585938 C51.03779862 69.67060064 51.02053375 74.83528813 51 80 C46.05 80 41.1 80 36 80 C35.98541748 78.80922852 35.97083496 77.61845703 35.95581055 76.39160156 C35.89780765 71.97072423 35.82057485 67.55035519 35.73754883 63.12988281 C35.70430886 61.21720636 35.67627401 59.30443203 35.65356445 57.39160156 C35.62000131 54.64085206 35.56768511 51.89099868 35.51171875 49.140625 C35.50532883 48.28631897 35.4989389 47.43201294 35.49235535 46.55181885 C35.4053176 43.0317831 35.3369288 40.62870534 33.65551758 37.49121094 C31.1359966 35.22174712 29.02619844 35.00197724 25.6875 34.75 C21.43548855 34.80014436 21.43548855 34.80014436 16 38 C15.67 51.86 15.34 65.72 15 80 C10.05 80 5.1 80 0 80 C0 53.6 0 27.2 0 0 Z " fill="#002543" transform="translate(498,629)"/>
<path d="M0 0 C4.39329862 3.15889834 7.19826554 7.07575773 8.765625 12.26953125 C9.03339565 15.56994575 8.99828125 18.85473211 8.9609375 22.1640625 C8.9581076 23.11141769 8.95527771 24.05877289 8.95236206 25.03483582 C8.94119687 28.05069791 8.91609889 31.06625941 8.890625 34.08203125 C8.88059047 36.13085508 8.87146545 38.17968357 8.86328125 40.22851562 C8.84126949 45.24230273 8.80676471 50.25586608 8.765625 55.26953125 C4.475625 55.26953125 0.185625 55.26953125 -4.234375 55.26953125 C-4.894375 53.94953125 -5.554375 52.62953125 -6.234375 51.26953125 C-7.141875 51.90890625 -8.049375 52.54828125 -8.984375 53.20703125 C-14.50884128 56.71294254 -19.80580916 56.8151657 -26.234375 56.26953125 C-31.47170046 54.63823316 -34.68426078 52.44613621 -38.234375 48.26953125 C-40.17232659 42.45567649 -40.25493192 36.34844349 -37.546875 30.83203125 C-30.10776162 22.5886894 -20.95795186 20.70497067 -10.234375 19.26953125 C-8.914375 19.26953125 -7.594375 19.26953125 -6.234375 19.26953125 C-6.25563962 15.86338179 -6.25563962 15.86338179 -7.234375 12.26953125 C-11.11900238 9.25894503 -14.94314433 8.76036727 -19.71875 8.8984375 C-23.68101294 9.48293281 -27.25028543 10.89622914 -30.94921875 12.39453125 C-33.234375 13.26953125 -33.234375 13.26953125 -35.234375 13.26953125 C-35.234375 9.30953125 -35.234375 5.34953125 -35.234375 1.26953125 C-24.23953676 -3.12840405 -11.0552056 -5.97065493 0 0 Z " fill="#012443" transform="translate(387.234375,653.73046875)"/>
<path d="M0 0 C15.18 0 30.36 0 46 0 C46 4.29 46 8.58 46 13 C36.43 13 26.86 13 17 13 C17 19.6 17 26.2 17 33 C25.58 33 34.16 33 43 33 C43 37.29 43 41.58 43 46 C34.42 46 25.84 46 17 46 C17 56.56 17 67.12 17 78 C11.39 78 5.78 78 0 78 C0 52.26 0 26.52 0 0 Z " fill="#002A4B" transform="translate(647,631)"/>
<path d="M0 0 C5.07984332 3.39612877 7.81095443 7.454727 10.1875 13 C11.21667789 18.89438243 10.875 24.95394325 10.875 30.9375 C-0.345 30.9375 -11.565 30.9375 -23.125 30.9375 C-21.15221628 40.38438354 -21.15221628 40.38438354 -17.125 43.9375 C-8.60683901 46.776887 0.7603742 45.29527619 8.875 41.9375 C8.875 45.5675 8.875 49.1975 8.875 52.9375 C-1.32862149 57.41032038 -11.83820129 59.16761872 -22.625 55.375 C-28.99055691 52.34025775 -33.40724603 47.99800793 -36.5625 41.6875 C-39.75235687 32.64494922 -40.11274899 20.00110117 -36.125 11.1875 C-28.54285645 -1.13348327 -13.43628537 -6.87648275 0 0 Z " fill="#022544" transform="translate(888.125,653.0625)"/>
<path d="M0 0 C4.51123216 3.20589878 6.31170393 6.97119367 7.6875 12.19921875 C7.94934468 15.53294176 7.92074138 18.84918761 7.8828125 22.19140625 C7.8799826 23.1373465 7.87715271 24.08328674 7.87423706 25.05789185 C7.86308932 28.06346569 7.83799465 31.06873577 7.8125 34.07421875 C7.80246321 36.11848526 7.79333859 38.16275647 7.78515625 40.20703125 C7.76316767 45.20454319 7.72867509 50.20182955 7.6875 55.19921875 C2.7375 55.19921875 -2.2125 55.19921875 -7.3125 55.19921875 C-7.32708252 54.04397705 -7.34166504 52.88873535 -7.35668945 51.69848633 C-7.41476822 47.40243963 -7.4920005 43.10691181 -7.57495117 38.8112793 C-7.60815549 36.95394325 -7.63620141 35.09650738 -7.65893555 33.23901367 C-7.69256442 30.56516077 -7.74488374 27.89221882 -7.80078125 25.21875 C-7.80717117 24.39147903 -7.8135611 23.56420807 -7.82014465 22.71186829 C-7.93689764 18.10860497 -8.25459197 14.89116582 -11.3125 11.19921875 C-17.77125508 9.04630039 -21.19483143 10.14038447 -27.3125 13.19921875 C-27.6425 27.05921875 -27.9725 40.91921875 -28.3125 55.19921875 C-33.2625 55.19921875 -38.2125 55.19921875 -43.3125 55.19921875 C-43.3125 36.38921875 -43.3125 17.57921875 -43.3125 -1.80078125 C-39.0225 -1.80078125 -34.7325 -1.80078125 -30.3125 -1.80078125 C-29.9825 0.17921875 -29.6525 2.15921875 -29.3125 4.19921875 C-28.28125 3.41546875 -27.25 2.63171875 -26.1875 1.82421875 C-18.15596216 -3.83472907 -8.6797613 -4.98736284 0 0 Z " fill="#002442" transform="translate(770.3125,653.80078125)"/>
<path d="M0 0 C0 4.29 0 8.58 0 13 C-1.155 12.505 -2.31 12.01 -3.5 11.5 C-10.45772055 9.12119666 -17.75035778 9.7598278 -25 10 C-25.33425735 12.37374861 -25.33425735 12.37374861 -25 15 C-21.46137736 18.83197996 -15.85266695 19.96915142 -11.01953125 21.57421875 C-5.42682882 23.54377686 -0.75984322 26.04026368 2.375 31.3125 C3.53212948 36.28815677 3.56521232 40.33761082 1.9375 45.125 C-1.92394199 50.85488166 -6.27322016 54.24974673 -13 56 C-15.65414786 56.21178175 -18.16357075 56.33299523 -20.8125 56.3125 C-21.5144751 56.31048584 -22.2164502 56.30847168 -22.93969727 56.30639648 C-28.11046694 56.20671756 -35.08158285 55.91841715 -39 52 C-39.07226502 50.14712498 -39.0838122 48.29166122 -39.0625 46.4375 C-39.05347656 45.42558594 -39.04445313 44.41367187 -39.03515625 43.37109375 C-39.02355469 42.58863281 -39.01195312 41.80617188 -39 41 C-38.26136719 41.2165625 -37.52273438 41.433125 -36.76171875 41.65625 C-29.85712087 43.55128576 -23.17928151 44.94820699 -16 44 C-15.01 43.34 -14.02 42.68 -13 42 C-12.74969023 39.41619823 -12.74969023 39.41619823 -13 37 C-13.87398438 36.67128906 -13.87398438 36.67128906 -14.765625 36.3359375 C-19.71976468 34.41971366 -24.57723696 32.34350036 -29.375 30.0625 C-30.35210937 29.59972656 -31.32921875 29.13695312 -32.3359375 28.66015625 C-35.90290937 26.43733654 -38.12600387 23.74799226 -40 20 C-40.40045268 15.21767083 -40.6379928 10.63042604 -38.875 6.125 C-28.48801626 -5.6469149 -13.92895517 -5.14299883 0 0 Z " fill="#022544" transform="translate(487,654)"/>
<path d="M0 0 C0 3.96 0 7.92 0 12 C-1.051875 11.67 -2.10375 11.34 -3.1875 11 C-10.25388087 9.26174588 -17.90711051 8.6135323 -24.625 11.625 C-28.92394696 15.92394696 -30.17763733 19.4343856 -30.375 25.4375 C-30.17952129 31.69281882 -29.18283437 35.92630735 -24.5 40.375 C-18.95289799 43.98061631 -12.0886812 43.80651516 -5.72265625 42.55078125 C-4.13060004 42.0917221 -2.56117277 41.55508365 -1 41 C-1 44.63 -1 48.26 -1 52 C-9.41655636 56.39956355 -18.27540746 57.72047324 -27.671875 55.31640625 C-35.27732069 52.15621244 -40.76243356 47.49204343 -44.2734375 40.02734375 C-47.1335786 32.04662747 -47.67611159 20.99294632 -44.4375 13.0625 C-40.56144137 5.9046217 -35.8575949 0.32170696 -28.0078125 -2.37890625 C-18.51447258 -4.3392193 -8.92533897 -3.82514527 0 0 Z " fill="#022544" transform="translate(194,654)"/>
<path d="M0 0 C4.62 0 9.24 0 14 0 C14 26.4 14 52.8 14 80 C9.38 80 4.76 80 0 80 C0 53.6 0 27.2 0 0 Z " fill="#002341" transform="translate(324,629)"/>
<path d="M0 0 C1.60875 0.020625 3.2175 0.04125 4.875 0.0625 C4.875 4.6825 4.875 9.3025 4.875 14.0625 C2.0596875 14.1553125 2.0596875 14.1553125 -0.8125 14.25 C-5.14098395 14.60219976 -6.75473776 14.78661833 -10.3125 17.4375 C-13.35572275 21.84492605 -13.32614237 25.83838836 -13.44140625 31.01171875 C-13.46218735 31.78433548 -13.48296844 32.55695221 -13.50437927 33.35298157 C-13.56971038 35.8185648 -13.62868315 38.28425361 -13.6875 40.75 C-13.73070087 42.42253691 -13.77431566 44.09506319 -13.81835938 45.76757812 C-13.9253749 49.8657775 -14.02668857 53.96408296 -14.125 58.0625 C-19.075 58.0625 -24.025 58.0625 -29.125 58.0625 C-29.125 39.2525 -29.125 20.4425 -29.125 1.0625 C-24.835 1.0625 -20.545 1.0625 -16.125 1.0625 C-15.465 3.0425 -14.805 5.0225 -14.125 7.0625 C-13.64289062 6.64097656 -13.16078125 6.21945312 -12.6640625 5.78515625 C-12.03242187 5.23730469 -11.40078125 4.68945312 -10.75 4.125 C-9.81027344 3.30708984 -9.81027344 3.30708984 -8.8515625 2.47265625 C-5.81235033 -0.00959622 -3.85402349 -0.04941056 0 0 Z " fill="#002442" transform="translate(936.125,650.9375)"/>
<path d="M0 0 C2.3821875 0.0309375 2.3821875 0.0309375 4.8125 0.0625 C4.8125 5.0125 4.8125 9.9625 4.8125 15.0625 C2.935625 14.959375 1.05875 14.85625 -0.875 14.75 C-6.00277058 14.72584358 -6.00277058 14.72584358 -10.375 17.375 C-13.38109697 21.8323162 -13.38803387 25.81107715 -13.50390625 31.01171875 C-13.52468735 31.78433548 -13.54546844 32.55695221 -13.56687927 33.35298157 C-13.63221038 35.8185648 -13.69118315 38.28425361 -13.75 40.75 C-13.79320087 42.42253691 -13.83681566 44.09506319 -13.88085938 45.76757812 C-13.9878749 49.8657775 -14.08918857 53.96408296 -14.1875 58.0625 C-19.1375 58.0625 -24.0875 58.0625 -29.1875 58.0625 C-29.1875 39.2525 -29.1875 20.4425 -29.1875 1.0625 C-24.8975 1.0625 -20.6075 1.0625 -16.1875 1.0625 C-14.83310332 3.77129335 -15.12248549 6.07183268 -15.1875 9.0625 C-14.5275 9.0625 -13.8675 9.0625 -13.1875 9.0625 C-12.919375 8.299375 -12.65125 7.53625 -12.375 6.75 C-11.2239442 4.14497899 -10.38296244 2.81886995 -8.1875 1.0625 C-5.17259443 0.05753148 -3.14568308 -0.04085303 0 0 Z " fill="#002442" transform="translate(436.1875,650.9375)"/>
<path d="M0 0 C4.95 0 9.9 0 15 0 C15 18.81 15 37.62 15 57 C10.05 57 5.1 57 0 57 C0 38.19 0 19.38 0 0 Z " fill="#002342" transform="translate(701,652)"/>
<path d="M0 0 C4.95 0 9.9 0 15 0 C15 18.81 15 37.62 15 57 C10.05 57 5.1 57 0 57 C0 38.19 0 19.38 0 0 Z " fill="#022644" transform="translate(560,652)"/>
<path d="M0 0 C0.91523437 -0.01933594 1.83046875 -0.03867187 2.7734375 -0.05859375 C6.97558274 0.67246439 8.65722209 1.25711811 11.625 4.4375 C12.38802771 9.20032055 12.18563896 13.87992696 12 18.6875 C11.97292969 20.00492188 11.94585938 21.32234375 11.91796875 22.6796875 C11.84722422 25.93393587 11.74854061 29.18489748 11.625 32.4375 C5.9336189 35.38936573 1.98798555 36.33762966 -4.375 35.4375 C-8.69087264 33.55421012 -10.02741039 32.08633393 -12.25 27.9375 C-14.3792638 21.10345572 -14.68298638 13.43818817 -11.625 6.875 C-8.91242257 1.86964879 -5.66200169 0.00792997 0 0 Z " fill="#F5F5F5" transform="translate(814.375,662.5625)"/>
<path d="M0 0 C3.84269341 2.04398586 5.94512449 4.64267223 7.49609375 8.74609375 C9.17771259 16.26775323 9.09417058 24.3646201 5 31 C2.780286 33.54614252 1.23723697 34.77816638 -2.11328125 35.37890625 C-6.10608773 35.58693482 -8.68705362 35.13908728 -12.375 33.5 C-17.2034356 28.90148991 -18.15721939 24.04249247 -18.375 17.5 C-18.17485115 11.2257685 -17.0243777 6.45379116 -12.9375 1.5 C-8.6174211 -0.70599773 -4.75382336 -0.75967194 0 0 Z " fill="#F5F5F5" transform="translate(293,663)"/>
<path d="M0 0 C4.7206475 2.85020227 6.88363351 5.65546981 8.53125 10.90234375 C10.10026376 17.92368033 8.82760158 24.46766329 6 31 C4 33.625 4 33.625 1 35 C-4.90263545 35.67560285 -9.52670755 35.29965452 -15 33 C-15.09893453 28.92503897 -15.17149694 24.85054344 -15.21972656 20.7746582 C-15.23983275 19.38846662 -15.26712245 18.00235975 -15.30175781 16.61645508 C-15.35031225 14.62358094 -15.37083972 12.63008611 -15.390625 10.63671875 C-15.41157227 9.43748779 -15.43251953 8.23825684 -15.45410156 7.00268555 C-15 4 -15 4 -13.16308594 2.14770508 C-8.90216036 -0.11308624 -4.75074407 -0.77379544 0 0 Z " fill="#F4F4F4" transform="translate(616,663)"/>
<path d="M0 0 C15.18 0 30.36 0 46 0 C46 4.29 46 8.58 46 13 C36.43 13 26.86 13 17 13 C17 12.67 17 12.34 17 12 C26.24 12 35.48 12 45 12 C45 8.7 45 5.4 45 2 C30.81 2 16.62 2 2 2 C2 26.75 2 51.5 2 77 C6.29 77 10.58 77 15 77 C14.99476318 76.06615479 14.98952637 75.13230957 14.98413086 74.17016602 C14.9671238 70.71687204 14.95456698 67.26362233 14.94506836 63.81030273 C14.94002879 62.31355082 14.93319713 60.81680384 14.92456055 59.32006836 C14.91247841 57.17300193 14.90676809 55.02600038 14.90234375 52.87890625 C14.89710693 51.5854126 14.89187012 50.29191895 14.88647461 48.95922852 C15 46 15 46 16 45 C17.92667507 44.91251793 19.85651861 44.89302666 21.78515625 44.90234375 C23.53989258 44.90717773 23.53989258 44.90717773 25.33007812 44.91210938 C26.56177734 44.92048828 27.79347656 44.92886719 29.0625 44.9375 C30.91584961 44.94426758 30.91584961 44.94426758 32.80664062 44.95117188 C35.87114117 44.96300392 38.93554721 44.97948827 42 45 C42 41.37 42 37.74 42 34 C33.75 34 25.5 34 17 34 C17 33.67 17 33.34 17 33 C25.58 33 34.16 33 43 33 C43 37.29 43 41.58 43 46 C34.42 46 25.84 46 17 46 C17 56.56 17 67.12 17 78 C11.39 78 5.78 78 0 78 C0 52.26 0 26.52 0 0 Z " fill="#17293F" transform="translate(647,631)"/>
<path d="M0 0 C0.13536022 2.08153935 0.23215465 4.16561206 0.3125 6.25 C0.37050781 7.41015625 0.42851562 8.5703125 0.48828125 9.765625 C0 13 0 13 -2.39453125 15.359375 C-6.69725365 18.06873543 -8.88229151 18.14578806 -13.86328125 17.49609375 C-16 17 -16 17 -18.125 15.375 C-19.42879818 11.83611922 -19.02883652 9.60092782 -18 6 C-13.27155472 0.69840984 -6.78729569 -0.14140199 0 0 Z " fill="#F3F4F4" transform="translate(381,682)"/>
<path d="M0 0 C0.99 0 1.98 0 3 0 C2.89284299 13.91657781 2.78003127 27.83309985 2.66066074 41.74957848 C2.6054036 48.21096435 2.55197915 54.67235472 2.50268555 61.13378906 C2.45508316 67.36482417 2.40274189 73.59580282 2.34705925 79.82677078 C2.32661697 82.20869167 2.30790704 84.59062806 2.29092598 86.97257614 C2.26692342 90.29866917 2.2368632 93.62465474 2.20532227 96.95068359 C2.19668907 98.4406913 2.19668907 98.4406913 2.18788147 99.96080017 C2.17809265 100.86386398 2.16830383 101.7669278 2.15821838 102.69735718 C2.15176583 103.48456839 2.14531328 104.27177959 2.1386652 105.08284569 C2 107 2 107 1 109 C3.97 109 6.94 109 10 109 C10 109.33 10 109.66 10 110 C6.7 110 3.4 110 0 110 C0 73.7 0 37.4 0 0 Z " fill="#007437" transform="translate(372,440)"/>
<path d="M0 0 C2.02734375 0.640625 2.02734375 0.640625 4.08984375 2.328125 C5.32472209 5.37415824 5.50266611 7.38127168 5.02734375 10.640625 C2.84449032 13.87124808 1.365882 14.54829639 -2.41015625 15.578125 C-6.37086293 15.64761108 -7.90804023 15.07429066 -10.97265625 12.640625 C-12.4169648 9.75200791 -12.34954131 7.84414799 -11.97265625 4.640625 C-8.59576063 -0.47918449 -5.70513944 -1.02521641 0 0 Z " fill="#042442" transform="translate(711.97265625,627.359375)"/>
<path d="M0 0 C2.875 1.4375 2.875 1.4375 5 4 C5.33 6.97 5.66 9.94 6 13 C-0.6 13 -7.2 13 -14 13 C-12.85279188 4.96954315 -12.85279188 4.96954315 -9 1 C-5.89951072 -0.55024464 -3.42105782 -0.28992015 0 0 Z " fill="#F5F6F6" transform="translate(879,662)"/>
<path d="M0 0 C3.41165683 1.9711795 4.71748902 3.21894024 6.0625 6.9375 C6 10 6 10 4.5 12.8125 C1.26058399 15.64698901 -0.72333475 16 -5 16 C-7.37633793 14.86349056 -9.14441029 13.85558971 -11 12 C-11.28803699 9.07162397 -11.48693199 6.84965878 -11 4 C-7.72794548 0.1505241 -4.96702569 -0.82783761 0 0 Z " fill="#022543" transform="translate(570,627)"/>
<path d="M0 0 C0 20.46 0 40.92 0 62 C-2.97 62 -5.94 62 -9 62 C-9 61.67 -9 61.34 -9 61 C-6.69 61 -4.38 61 -2 61 C-2 41.53 -2 22.06 -2 2 C-4.31 2 -6.62 2 -9 2 C-9 1.67 -9 1.34 -9 1 C-2.25 0 -2.25 0 0 0 Z " fill="#01763C" transform="translate(615,488)"/>
<path d="M0 0 C0.33 0 0.66 0 1 0 C1 4.62 1 9.24 1 14 C-8.625 11.125 -8.625 11.125 -12 10 C-14.12327356 9.90476082 -16.24959711 9.87013638 -18.375 9.875 C-19.49648437 9.87242187 -20.61796875 9.86984375 -21.7734375 9.8671875 C-24.64264622 9.98529052 -27.21208229 10.34217672 -30 11 C-29 9 -29 9 -26 8 C-16.77144688 7.45529539 -8.75333676 7.71749871 0 11 C0 7.37 0 3.74 0 0 Z " fill="#050E22" transform="translate(137,635)"/>
<path d="M0 0 C0.99 0.33 1.98 0.66 3 1 C2.48050781 1.43570312 1.96101563 1.87140625 1.42578125 2.3203125 C-1.90697126 5.1663969 -5.06010291 7.90090093 -7.75 11.375 C-10.09018379 14.10521442 -10.67208994 14.39873894 -14 15 C-9.59156563 9.70987876 -4.92440206 4.81191572 0 0 Z " fill="#FBFCFB" transform="translate(507,477)"/>
<path d="M0 0 C0.99 0.33 1.98 0.66 3 1 C1.7934375 1.61875 1.7934375 1.61875 0.5625 2.25 C-2.38920545 4.26579885 -2.28397398 4.7267382 -3 8 C-5.0625 9.75 -5.0625 9.75 -7 11 C-7.66 10.67 -8.32 10.34 -9 10 C-9 8.02 -9 6.04 -9 4 C-7.515 4.99 -7.515 4.99 -6 6 C-5.38125 5.195625 -4.7625 4.39125 -4.125 3.5625 C-2 1 -2 1 0 0 Z " fill="#0B1F38" transform="translate(929,652)"/>
<path d="M0 0 C0.66 0 1.32 0 2 0 C2.93637414 1.43800315 3.86960101 2.87822737 4.78125 4.33203125 C6.78725325 7.07742673 9.31921165 8.92848173 12 11 C11.01 11.495 11.01 11.495 10 12 C8.8450079 11.26418258 7.70125815 10.51069961 6.5625 9.75 C5.60537109 9.12351562 5.60537109 9.12351562 4.62890625 8.484375 C2.70097943 6.72751123 2.38520564 5.53910197 2 3 C1.34 3 0.68 3 0 3 C0 2.01 0 1.02 0 0 Z " fill="#FAFBFA" transform="translate(89,661)"/>
<path d="M0 0 C1.09570312 0.00902344 2.19140625 0.01804687 3.3203125 0.02734375 C4.16335938 0.03894531 5.00640625 0.05054688 5.875 0.0625 C5.875 0.3925 5.875 0.7225 5.875 1.0625 C-0.065 1.5575 -0.065 1.5575 -6.125 2.0625 C-6.125 3.7125 -6.125 5.3625 -6.125 7.0625 C-7.115 6.7325 -8.105 6.4025 -9.125 6.0625 C-8.75 3.625 -8.75 3.625 -8.125 1.0625 C-5.36047967 -0.31976016 -3.0788637 -0.03275387 0 0 Z " fill="#FAFBFB" transform="translate(470.125,662.9375)"/>
<path d="M0 0 C1.45903258 0.30921884 2.91720722 0.62248799 4.375 0.9375 C5.18710937 1.11152344 5.99921875 1.28554688 6.8359375 1.46484375 C9 2 9 2 11 3 C11 3.66 11 4.32 11 5 C9.1875 6.0625 9.1875 6.0625 7 7 C6.01 6.67 5.02 6.34 4 6 C4.99 5.01 5.98 4.02 7 3 C5.02 3 3.04 3 1 3 C0.67 2.01 0.34 1.02 0 0 Z " fill="#0B182F" transform="translate(573,369)"/>
<path d="M0 0 C0.66 0 1.32 0 2 0 C2 3.96 2 7.92 2 12 C0.68 11.34 -0.64 10.68 -2 10 C-1.34 10 -0.68 10 0 10 C0 6.7 0 3.4 0 0 Z " fill="#1A2F43" transform="translate(192,654)"/>
<path d="M0 0 C0.66 0 1.32 0 2 0 C2 1.98 2 3.96 2 6 C3.2065625 6.433125 3.2065625 6.433125 4.4375 6.875 C7 8 7 8 8 10 C2.25 8.375 2.25 8.375 0 5 C-0.125 2.3125 -0.125 2.3125 0 0 Z " fill="#D0DAE0" transform="translate(362,690)"/>
<path d="M0 0 C0 0.66 0 1.32 0 2 C-6.75 5.875 -6.75 5.875 -9 7 C-9 5.35 -9 3.7 -9 2 C-7.824375 1.7834375 -7.824375 1.7834375 -6.625 1.5625 C-4.19936192 1.04272041 -2.45184765 0 0 0 Z " fill="#E7EFF1" transform="translate(522,651)"/>
<path d="M0 0 C0.66 0.99 1.32 1.98 2 3 C1.67 3.33 1.34 3.66 1 4 C0.76712992 5.68183948 0.58735834 7.3712416 0.4375 9.0625 C0.31181641 10.44115234 0.31181641 10.44115234 0.18359375 11.84765625 C0.12300781 12.55792969 0.06242188 13.26820313 0 14 C-0.33 14 -0.66 14 -1 14 C-1.33 9.71 -1.66 5.42 -2 1 C-1.34 0.67 -0.68 0.34 0 0 Z " fill="#093152" transform="translate(788,670)"/>
<path d="M0 0 C1.32257813 0.33064453 1.32257813 0.33064453 2.671875 0.66796875 C3.56390625 0.88066406 4.4559375 1.09335937 5.375 1.3125 C6.05046875 1.49167969 6.7259375 1.67085937 7.421875 1.85546875 C7.421875 2.18546875 7.421875 2.51546875 7.421875 2.85546875 C2.801875 2.85546875 -1.818125 2.85546875 -6.578125 2.85546875 C-2.578125 -0.14453125 -2.578125 -0.14453125 0 0 Z " fill="#FAFCFB" transform="translate(287.578125,648.14453125)"/>
<path d="M0 0 C5.94 0.99 5.94 0.99 12 2 C10 4 10 4 8.125 4.08203125 C7.073125 3.94861328 7.073125 3.94861328 6 3.8125 C5.29875 3.73644531 4.5975 3.66039062 3.875 3.58203125 C2 3 2 3 0 0 Z " fill="#091931" transform="translate(560,639)"/>
<path d="M0 0 C2 2 2 2 2 5 C1.34 5 0.68 5 0 5 C0 7.31 0 9.62 0 12 C-0.33 12 -0.66 12 -1 12 C-1.02698189 10.37509046 -1.04638757 8.75005367 -1.0625 7.125 C-1.07410156 6.22007812 -1.08570313 5.31515625 -1.09765625 4.3828125 C-1 2 -1 2 0 0 Z " fill="#FBF9FC" transform="translate(586,448)"/>
</svg>
